HIERARCHY
ROOT Hips
{
	OFFSET -0.179506 -22.333345 2.821913
	CHANNELS 6 Xposition Yposition Zposition Zrotation Yrotation Xrotation 
	JOINT LeftUpLeg
	{
		OFFSET 6.951974 -9.140623 -0.681533
		CHANNELS 3 Zrotation Yrotation Xrotation
		JOINT LeftLeg
		{
			OFFSET 3.427654 -37.519855 -0.449580
			CHANNELS 3 Zrotation Yrotation Xrotation
			JOINT LeftFoot
			{
				OFFSET -1.359570 -39.796059 -4.369333
				CHANNELS 3 Zrotation Yrotation Xrotation
				JOINT LeftToe
				{
					OFFSET 2.635814 -5.579078 11.928840
					CHANNELS 3 Zrotation Yrotation Xrotation
					End Site
					{
						OFFSET 0.000000 0.000000 0.000000
					}
				}
			}
		}
	}
	JOINT RightUpLeg
	{
		OFFSET -6.767048 -9.052170 -0.431982
		CHANNELS 3 Zrotation Yrotation Xrotation
		JOINT RightLeg
		{
			OFFSET -3.829005 -38.256897 -0.885003
			CHANNELS 3 Zrotation Yrotation Xrotation
			JOINT RightFoot
			{
				OFFSET 1.577377 -39.841461 -4.231180
				CHANNELS 3 Zrotation Yrotation Xrotation
				JOINT RightToe
				{
					OFFSET -2.537174 -4.814398 12.334795
					CHANNELS 3 Zrotation Yrotation Xrotation
					End Site
					{
						OFFSET 0.000000 0.000000 0.000000
					}
				}
			}
		}
	}
	JOINT Spine
	{
		OFFSET -0.253288 10.896323 -2.669631
		CHANNELS 3 Zrotation Yrotation Xrotation
		JOINT Spine1
		{
			OFFSET 0.548704 13.518043 0.109247
			CHANNELS 3 Zrotation Yrotation Xrotation
			JOINT Spine2
			{
				OFFSET 0.145701 5.292222 2.542457
				CHANNELS 3 Zrotation Yrotation Xrotation
				JOINT Neck
				{
					OFFSET -0.277840 21.387037 -4.285703
					CHANNELS 3 Zrotation Yrotation Xrotation
					JOINT Head
					{
						OFFSET 0.515184 6.496960 5.134897
						CHANNELS 3 Zrotation Yrotation Xrotation
						End Site
						{
							OFFSET 0.000000 0.000000 0.000000
						}
					}
				}
				JOINT LeftShoulder
				{
					OFFSET 7.884473 12.174932 -3.408961
					CHANNELS 3 Zrotation Yrotation Xrotation
					JOINT LeftArm
					{
						OFFSET 9.097692 3.046888 -0.886815
						CHANNELS 3 Zrotation Yrotation Xrotation
						JOINT LeftForeArm
						{
							OFFSET 25.961220 -1.277207 -2.745643
							CHANNELS 3 Zrotation Yrotation Xrotation
							JOINT LeftHand
							{
								OFFSET 24.923361 0.898606 -0.117091
								CHANNELS 3 Zrotation Yrotation Xrotation
								End Site
								{
									OFFSET 0.000000 0.000000 0.000000
								}
							}
						}
					}
				}
				JOINT RightShoulder
				{
					OFFSET -8.175920 11.883285 -3.861528
					CHANNELS 3 Zrotation Yrotation Xrotation
					JOINT RightArm
					{
						OFFSET -9.601238 3.255117 -0.914307
						CHANNELS 3 Zrotation Yrotation Xrotation
						JOINT RightForeArm
						{
							OFFSET -25.374195 -1.332924 -2.140099
							CHANNELS 3 Zrotation Yrotation Xrotation
							JOINT RightHand
							{
								OFFSET -25.529810 0.777228 -0.555919
								CHANNELS 3 Zrotation Yrotation Xrotation
								End Site
								{
									OFFSET 0.000000 0.000000 0.000000
								}
							}
						}
					}
				}
			}
		}
	}
}
MOTION
Frames: 6
Frame Time: 0.033333
-5.983239 15.398164 94.474953 178.173998 1.211264 94.339369 -0.211118 -0.056726 1.040792 4.593823 -10.680847 -7.773995 0.492808 16.752838 -7.131748 nan nan nan 1.366453 -2.456812 -1.582008 0.207457 6.233071 -9.440319 7.061428 -13.053370 0.885775 nan nan nan 0.559001 1.543204 2.112891 2.025847 -2.682687 -5.906617 0.665526 1.384008 -0.297326 -4.161582 -2.433076 10.122791 5.863205 -2.112508 -11.670754 1.804130 10.699905 -12.111239 -13.652744 -11.488306 -5.177618 7.795449 -3.225311 -9.306232 -17.722810 -14.484782 5.750629 -2.871946 -7.975880 -10.928276 12.117462 9.556982 -12.419407 -11.665817 8.160774 -14.825552 15.445354 10.219365 2.687824 
-5.989989 15.390512 94.474625 178.152692 1.200226 94.325048 -0.214193 -0.056530 1.053434 4.558235 -10.666695 -7.734208 0.496800 16.799651 -7.142693 nan nan nan 1.360822 -2.439884 -1.571942 0.193417 6.244424 -9.439783 7.021896 -13.074843 0.875609 nan nan nan 0.517752 1.577843 2.157791 2.055053 -2.671222 -5.853848 0.685827 1.391542 -0.389691 -4.177906 -2.486660 10.064191 5.857839 -2.159676 -11.631878 1.706482 10.665876 -12.172775 -13.472507 -11.514013 -5.166823 7.639484 -3.129382 -9.329686 -18.187036 -14.425956 5.651105 -2.702106 -7.963729 -11.024348 11.889911 9.492490 -12.321286 -11.688907 8.239205 -14.887192 15.747653 10.158279 2.664929 
-6.000789 15.382565 94.463707 178.134331 1.204342 94.329456 -0.217764 -0.032013 1.041678 4.540145 -10.618498 -7.685381 0.468764 16.795969 -7.179907 nan nan nan 1.371485 -2.431643 -1.580521 0.177134 6.233921 -9.421609 6.982265 -13.066599 0.856042 nan nan nan 0.520240 1.573904 2.171887 2.069916 -2.672762 -5.856006 0.694356 1.396116 -0.425408 -4.165739 -2.457778 10.042003 5.821834 -2.187216 -11.594080 1.705499 10.693745 -12.176144 -13.479523 -11.531011 -5.209088 7.664423 -3.086112 -9.376955 -18.365495 -14.272430 5.843219 -2.628991 -7.936670 -11.006700 11.808031 9.530645 -12.349363 -11.759103 8.241214 -14.991848 15.888398 10.111811 2.709966 
-6.002303 15.378709 94.453049 178.101615 1.206263 94.317133 -0.226491 -0.016717 1.055524 4.534438 -10.613187 -7.659971 0.471879 16.770528 -7.281130 nan nan nan 1.389332 -2.430113 -1.574870 0.155556 6.227690 -9.402198 7.008449 -13.061988 0.866094 nan nan nan 0.516798 1.568935 2.181889 2.070465 -2.671534 -5.883204 0.688923 1.400165 -0.404434 -4.132424 -2.429126 10.019880 5.811706 -2.273398 -11.550346 1.759715 10.742311 -12.176645 -13.478805 -11.544666 -5.268855 7.565050 -3.034949 -9.477406 -18.513480 -14.169094 6.083299 -2.611922 -7.899346 -10.948576 11.788243 9.534309 -12.355701 -11.722135 8.244610 -14.983970 15.984043 10.099700 2.766183 
-5.995988 15.376993 94.462181 178.115823 1.203356 94.288567 -0.239967 -0.020522 1.092017 4.562220 -10.680739 -7.696412 0.555101 16.798263 -7.310290 nan nan nan 1.400181 -2.449086 -1.538501 0.144705 6.217190 -9.409649 7.071093 -13.108167 0.815389 nan nan nan 0.507729 1.561995 2.213529 2.075548 -2.681831 -5.916234 0.689569 1.394657 -0.356174 -4.170074 -2.447897 9.974381 5.802914 -2.291953 -11.533579 1.763081 10.747653 -12.194714 -13.468304 -11.557857 -5.349679 7.556428 -2.911647 -9.518970 -17.982312 -14.046680 6.251759 -2.581078 -7.893201 -10.926866 11.762946 9.514853 -12.377497 -11.649917 8.312259 -14.941958 15.640842 10.107848 2.803878 
-5.989910 15.368822 94.475281 178.150270 1.180839 94.327290 -0.241653 -0.072090 1.036816 4.517228 -10.789315 -7.704996 0.606548 16.905995 -7.261739 nan nan nan 1.377881 -2.454640 -1.589953 0.157170 6.256326 -9.404639 7.088778 -13.194808 0.700321 nan nan nan 0.490187 1.554691 2.226007 2.081636 -2.712470 -5.995465 0.695455 1.388814 -0.314838 -4.265179 -2.533956 9.928653 5.815567 -2.142238 -11.495467 1.669203 10.717512 -12.186659 -13.356580 -11.584693 -5.459001 7.601692 -2.801103 -9.518668 -17.449286 -13.650670 6.256785 -2.540014 -7.937861 -10.939932 11.743372 9.541940 -12.390325 -11.619140 8.422286 -14.848140 15.371472 9.945399 2.855132 
